{
    "asset" : {
        "generator" : "Khronos glTF Blender I/O v1.2.75",
        "version" : "2.0"
    },
    "extensionsUsed" : [
        "KHR_materials_clearcoat"
    ],
    "scene" : 0,
    "scenes" : [
        {
            "name" : "Scene",
            "nodes" : [
                0,
                1,
                2
            ]
        }
    ],
    "nodes" : [
        {
            "mesh" : 0,
            "name" : "Bottle",
            "scale" : [
                0.2834296226501465,
                0.2834296226501465,
                0.2834296226501465
            ],
            "translation" : [
                0.006567187607288361,
                0.5106804966926575,
                0.007857264019548893
            ]
        },
        {
            "mesh" : 1,
            "name" : "Cap",
            "rotation" : [
                0,
                0.9999809861183167,
                0,
                0.0061880191788077354
            ],
            "scale" : [
                0.2834296226501465,
                0.2834296226501465,
                0.2834296226501465
            ],
            "translation" : [
                0.00505514070391655,
                0.9263536930084229,
                0.008373831398785114
            ]
        },
        {
            "mesh" : 2,
            "name" : "Label",
            "scale" : [
                0.28050658106803894,
                0.28050658106803894,
                0.28050658106803894
            ],
            "translation" : [
                0.1651725023984909,
                0.03890514373779297,
                0.006320373620837927
            ]
        }
    ],
    "materials" : [
        {
            "doubleSided" : true,
            "emissiveFactor" : [
                0,
                0,
                0
            ],
            "extensions" : {
                "KHR_materials_clearcoat" : {
                    "clearcoatFactor" : 0.6219512224197388,
                    "clearcoatRoughnessFactor" : 0.029999999329447746
                }
            },
            "name" : "mat-Bottle",
            "pbrMetallicRoughness" : {
                "baseColorFactor" : [
                    0.009012558497488499,
                    0,
                    0.8000000715255737,
                    1
                ],
                "metallicFactor" : 0,
                "roughnessFactor" : 0.20243903994560242
            }
        },
        {
            "doubleSided" : true,
            "emissiveFactor" : [
                0,
                0,
                0
            ],
            "name" : "Cap",
            "pbrMetallicRoughness" : {
                "baseColorTexture" : {
                    "index" : 0,
                    "texCoord" : 0
                },
                "metallicFactor" : 0,
                "roughnessFactor" : 0.5
            }
        },
        {
            "alphaCutoff" : 0.6000000238418579,
            "alphaMode" : "MASK",
            "doubleSided" : true,
            "emissiveFactor" : [
                0,
                0,
                0
            ],
            "name" : "Label",
            "pbrMetallicRoughness" : {
                "baseColorTexture" : {
                    "index" : 1,
                    "texCoord" : 0
                },
                "metallicFactor" : 0,
                "roughnessFactor" : 0.5
            }
        }
    ],
    "meshes" : [
        {
            "name" : "Mesh_0.004",
            "primitives" : [
                {
                    "attributes" : {
                        "POSITION" : 0,
                        "NORMAL" : 1,
                        "TEXCOORD_0" : 2
                    },
                    "indices" : 3,
                    "material" : 0
                }
            ]
        },
        {
            "name" : "Mesh_5.004",
            "primitives" : [
                {
                    "attributes" : {
                        "POSITION" : 4,
                        "NORMAL" : 5,
                        "TEXCOORD_0" : 6
                    },
                    "indices" : 7,
                    "material" : 1
                }
            ]
        },
        {
            "name" : "Mesh_2.004",
            "primitives" : [
                {
                    "attributes" : {
                        "POSITION" : 8,
                        "NORMAL" : 9,
                        "TEXCOORD_0" : 10
                    },
                    "indices" : 11,
                    "material" : 2
                }
            ]
        }
    ],
    "textures" : [
        {
            "source" : 0
        },
        {
            "source" : 1
        }
    ],
    "images" : [
        {
            "bufferView" : 8,
            "mimeType" : "image/png",
            "name" : "Cap"
        },
        {
            "bufferView" : 13,
            "mimeType" : "image/png",
            "name" : "ONE_BEER_LOGO_BLANCHE"
        }
    ],
    "accessors" : [
        {
            "bufferView" : 0,
            "componentType" : 5126,
            "count" : 4445,
            "max" : [
                0.42120814323425293,
                1.5088975429534912,
                0.42963874340057373
            ],
            "min" : [
                -0.4339342713356018,
                -1.7873767614364624,
                -0.42550384998321533
            ],
            "type" : "VEC3"
        },
        {
            "bufferView" : 1,
            "componentType" : 5126,
            "count" : 4445,
            "type" : "VEC3"
        },
        {
            "bufferView" : 2,
            "componentType" : 5126,
            "count" : 4445,
            "type" : "VEC2"
        },
        {
            "bufferView" : 3,
            "componentType" : 5123,
            "count" : 24960,
            "type" : "SCALAR"
        },
        {
            "bufferView" : 4,
            "componentType" : 5126,
            "count" : 16980,
            "max" : [
                0.2159777283668518,
                0.051460981369018555,
                0.21874338388442993
            ],
            "min" : [
                -0.21935784816741943,
                -0.03908514976501465,
                -0.21834397315979004
            ],
            "type" : "VEC3"
        },
        {
            "bufferView" : 5,
            "componentType" : 5126,
            "count" : 16980,
            "type" : "VEC3"
        },
        {
            "bufferView" : 6,
            "componentType" : 5126,
            "count" : 16980,
            "type" : "VEC2"
        },
        {
            "bufferView" : 7,
            "componentType" : 5123,
            "count" : 89280,
            "type" : "SCALAR"
        },
        {
            "bufferView" : 9,
            "componentType" : 5126,
            "count" : 300,
            "max" : [
                -0.13525521755218506,
                1.3779547214508057,
                0.43974748253822327
            ],
            "min" : [
                -1.0074317455291748,
                0.19839537143707275,
                -0.13109958171844482
            ],
            "type" : "VEC3"
        },
        {
            "bufferView" : 10,
            "componentType" : 5126,
            "count" : 300,
            "type" : "VEC3"
        },
        {
            "bufferView" : 11,
            "componentType" : 5126,
            "count" : 300,
            "type" : "VEC2"
        },
        {
            "bufferView" : 12,
            "componentType" : 5123,
            "count" : 1584,
            "type" : "SCALAR"
        }
    ],
    "bufferViews" : [
        {
            "buffer" : 0,
            "byteLength" : 53340,
            "byteOffset" : 0
        },
        {
            "buffer" : 0,
            "byteLength" : 53340,
            "byteOffset" : 53340
        },
        {
            "buffer" : 0,
            "byteLength" : 35560,
            "byteOffset" : 106680
        },
        {
            "buffer" : 0,
            "byteLength" : 49920,
            "byteOffset" : 142240
        },
        {
            "buffer" : 0,
            "byteLength" : 203760,
            "byteOffset" : 192160
        },
        {
            "buffer" : 0,
            "byteLength" : 203760,
            "byteOffset" : 395920
        },
        {
            "buffer" : 0,
            "byteLength" : 135840,
            "byteOffset" : 599680
        },
        {
            "buffer" : 0,
            "byteLength" : 178560,
            "byteOffset" : 735520
        },
        {
            "buffer" : 0,
            "byteLength" : 24014,
            "byteOffset" : 914080
        },
        {
            "buffer" : 0,
            "byteLength" : 3600,
            "byteOffset" : 938096
        },
        {
            "buffer" : 0,
            "byteLength" : 3600,
            "byteOffset" : 941696
        },
        {
            "buffer" : 0,
            "byteLength" : 2400,
            "byteOffset" : 945296
        },
        {
            "buffer" : 0,
            "byteLength" : 3168,
            "byteOffset" : 947696
        },
        {
            "buffer" : 0,
            "byteLength" : 130615,
            "byteOffset" : 950864
        }
    ],
    "buffers" : [
        {
            "byteLength" : 1081480,
            "uri" : "data:application/octet-stream;base64,"
        }
    ]
}
